<mxfile host="app.diagrams.net" modified="2023-11-24T22:46:38.667Z" agent="Mozilla/5.0 (Windows NT 10.0; Win64; x64) AppleWebKit/537.36 (KHTML, like Gecko) Chrome/116.0.5845.686 YaBrowser/23.9.5.686 Yowser/2.5 Safari/537.36" version="22.1.4" etag="GORZiPYUIaswhmJuKt1N" type="github">
  <diagram name="Страница — 1" id="IxeVf5hggV55n6sdxaTZ">
    <mxGraphModel>
      <root>
        <mxCell id="0" />
        <mxCell id="1" parent="0" />
      </root>
    </mxGraphModel>
  </diagram>
</mxfile>
